<svg width="45" height="58" viewBox="0 0 45 58" fill="none" xmlns="http://www.w3.org/2000/svg">
<path d="M22.5 0.010849L22.289 9.7966" stroke="white"/>
<path d="M22.5 9.71132C12.1473 9.71132 3.40957 16.5275 0.704983 25.848C0.186185 27.6358 0.710973 29.3057 1.8161 30.5124C2.91391 31.7111 4.58261 32.4561 6.3867 32.4561H38.6133C40.4174 32.4561 42.0861 31.7111 43.1839 30.5124C44.289 29.3057 44.8138 27.6358 44.295 25.848C41.5904 16.5275 32.8527 9.71132 22.5 9.71132Z" stroke="white"/>
<path d="M31.6995 32.3708C31.6995 37.45 27.4884 41.5675 22.2937 41.5675C17.0991 41.5675 12.888 37.45 12.888 32.3708" stroke="white"/>
<path d="M4.10356 47.8379L11.6282 40.3133" stroke="white" stroke-linecap="round"/>
<path d="M22.4369 57.2248L22.3317 46.5839" stroke="white" stroke-linecap="round"/>
<path d="M41.0177 47.8595L33.393 40.4363" stroke="white" stroke-linecap="round"/>
</svg>
