<svg width="120" height="120" viewBox="0 0 120 120" fill="none" xmlns="http://www.w3.org/2000/svg">
<g clip-path="url(#clip0_96_251)">
<path d="M71.25 117.6H48.75V114.9H71.25V117.6ZM75 110.1H45V107.4H75V110.1ZM75 102.6H45V99.9H75V102.6ZM75 95.1001H45C44.2537 95.1001 43.65 94.4963 43.65 93.7501V88.3013C43.65 82.2188 43.65 73.0275 35.9962 65.07C28.8412 57.6226 24.9 48.1838 24.9 38.4938C24.9 18.2551 40.3162 2.40381 60 2.40381C79.6837 2.40381 95.1 18.2551 95.1 38.4938C95.1 48.1838 91.1587 57.6263 84.0037 65.0663C76.35 73.0275 76.35 82.2188 76.35 88.3013V93.7501C76.35 94.4963 75.7462 95.1001 75 95.1001ZM46.35 92.4H73.65V88.3013C73.65 82.1813 73.65 71.94 82.0575 63.195C88.725 56.2538 92.4 47.4826 92.4 38.4901C92.4 19.7663 78.1687 5.10006 60 5.10006C41.8312 5.10006 27.6 19.7663 27.6 38.4901C27.6 47.4826 31.2712 56.2538 37.9425 63.195C46.35 71.94 46.35 82.1813 46.35 88.3013V92.4Z" fill="black"/>
</g>
<defs>
<clipPath id="clip0_96_251">
<rect width="120" height="120" fill="white"/>
</clipPath>
</defs>
</svg>
