<svg width="171" height="38" viewBox="0 0 171 38" fill="none" xmlns="http://www.w3.org/2000/svg">
<path d="M54.8574 28.453C55.2555 27.692 55.5367 26.7689 55.6563 25.7127H64.9769C64.7109 28.5468 63.4604 31.1992 61.4414 33.2113C61.433 33.217 61.4414 33.2281 61.4414 33.2281C60.3022 34.3639 58.9498 35.2648 57.4613 35.8792C55.9729 36.4936 54.3776 36.8096 52.7667 36.8091C51.1557 36.8099 49.5603 36.4941 48.0718 35.8796C46.5833 35.2652 45.2309 34.3641 44.0919 33.2281C44.0919 33.2281 44.0972 33.217 44.0919 33.2113C42.9521 32.0758 42.0482 30.7272 41.4319 29.2427C40.8157 27.7582 40.4993 26.1671 40.5008 24.5605C40.4993 22.9543 40.8157 21.3636 41.4319 19.8796C42.0481 18.3956 42.9521 17.0475 44.0919 15.9126C45.231 14.7766 46.5835 13.8754 48.0719 13.2606C49.5603 12.6458 51.1556 12.3294 52.7667 12.3294C54.3777 12.3294 55.973 12.6458 57.4614 13.2606C58.9498 13.8754 60.3023 14.7766 61.4414 15.9126C63.4609 17.9251 64.7115 20.5781 64.9769 23.4128H55.656C55.5359 22.3551 55.2552 21.4312 54.8571 20.6733C54.3027 19.6631 53.596 19.0662 52.7663 19.0605C51.9365 19.0666 51.2268 19.6631 50.6755 20.6733C50.1356 21.6937 49.8126 23.015 49.8126 24.5605C49.8126 26.109 50.1356 27.4295 50.6755 28.453C51.2268 29.4605 51.9365 30.06 52.7663 30.0631C53.5956 30.0604 54.3035 29.4605 54.8574 28.453ZM15.888 12.3176C17.4989 12.3169 19.0942 12.633 20.5825 13.2477C22.0708 13.8625 23.423 14.7638 24.5616 15.9001C25.7013 17.0351 26.6051 18.3832 27.2215 19.8672C27.8378 21.3511 28.1545 22.9417 28.1535 24.5479V35.7875H18.8425V24.7405C18.839 23.4002 18.5175 22.2575 17.9765 21.3711C17.4279 20.4966 16.7197 19.9795 15.888 19.9757C15.0579 19.9795 14.3489 20.4962 13.8003 21.3711C13.2578 22.2575 12.937 23.4002 12.9336 24.7409V30.8316L12.9351 35.7875H3.62256V24.5479C3.62211 22.9417 3.93914 21.3512 4.55552 19.8673C5.17189 18.3834 6.07553 17.0351 7.21476 15.8997C8.35347 14.7635 9.7056 13.8623 11.1938 13.2476C12.682 12.6329 14.2772 12.3171 15.888 12.3176ZM84.2667 25.5623L89.0609 32.9059C90.1745 34.5767 89.5447 35.9398 88.1839 35.9398C86.4741 35.9398 80.492 35.9425 80.492 35.9425L75.5614 28.3778V35.7875H66.2493V16.96C66.2493 14.3968 68.3344 12.3176 70.9041 12.3176C73.4764 12.3176 75.5614 14.3972 75.5614 16.96V21.9695L79.7762 14.4557C81.0818 12.2465 83.9383 11.5122 86.1514 12.8149C88.3675 14.1168 89.102 16.9634 87.7964 19.1711L84.2667 25.5623ZM37.0317 10.4511C35.1222 12.3544 34.9858 12.8608 36.8035 14.6696L37.8424 15.7056C38.2801 16.1408 38.6271 16.658 38.8636 17.2274C39.1001 17.7969 39.2213 18.4073 39.2204 19.0237V35.7875H29.8103V19.0241C29.8091 18.4077 29.9302 17.7971 30.1666 17.2276C30.4031 16.658 30.7502 16.1408 31.1879 15.7056L32.2272 14.6677C34.0426 12.8589 33.9058 12.3552 31.9994 10.4511L30.8546 9.31097C30.3733 8.83215 29.9917 8.2633 29.7314 7.63705C29.4711 7.0108 29.3374 6.33947 29.3379 5.66157C29.3379 4.23502 29.9189 2.94561 30.8542 2.01142C31.3345 1.53127 31.9053 1.15053 32.5336 0.89111C33.162 0.631685 33.8356 0.498687 34.5157 0.499762C35.195 0.498785 35.8679 0.63162 36.4956 0.890641C37.1233 1.14966 37.6935 1.52977 38.1735 2.00914C38.6552 2.48809 39.0372 3.05727 39.2976 3.68395C39.5581 4.31063 39.6917 4.98246 39.6909 5.66081C39.6909 7.08661 39.1118 8.37677 38.1735 9.31059L37.0317 10.4511Z" fill="#F57C14"/>
<path d="M122.448 10.4511C120.538 12.3544 120.402 12.8608 122.219 14.6696L123.258 15.7052C123.696 16.1404 124.043 16.6576 124.279 17.227C124.516 17.7965 124.637 18.4069 124.636 19.0233V35.7875H115.226V19.0241C115.225 18.4077 115.346 17.7971 115.583 17.2276C115.819 16.658 116.166 16.1408 116.604 15.7056L117.643 14.6677C119.458 12.8585 119.322 12.3548 117.415 10.4507L116.27 9.31097C115.789 8.83207 115.408 8.26314 115.147 7.63683C114.887 7.01051 114.754 6.33913 114.754 5.66119C114.754 4.23502 115.335 2.94561 116.27 2.01104C116.751 1.53098 117.321 1.15034 117.95 0.890978C118.578 0.63162 119.252 0.498667 119.932 0.499763C120.611 0.498835 121.284 0.631694 121.911 0.890714C122.539 1.14973 123.109 1.52981 123.589 2.00914C124.071 2.48806 124.453 3.05722 124.713 3.6839C124.974 4.31059 125.108 4.98243 125.107 5.66081C125.107 7.08623 124.528 8.37639 123.589 9.31059L122.448 10.4511ZM113.216 16.96V35.7875H103.904V28.3113H100.599V35.7875H91.2877V16.96C91.2877 14.3972 93.3724 12.3176 95.9421 12.3176C98.5148 12.3176 100.599 14.3972 100.599 16.96V21.976H103.904V16.96C103.904 14.3976 105.989 12.3176 108.561 12.3176C111.131 12.3176 113.216 14.3972 113.216 16.96ZM161.536 22.7863C167.911 24.8739 168.299 28.2611 168.299 29.6436C168.299 33.2938 164.454 37.1499 158.783 37.1499C152.183 37.1499 148.004 32.7828 148.319 28.4743H155.857C155.668 29.0156 155.746 31.5447 158.218 31.5447C158.647 31.5447 159.936 31.3255 160.111 30.215C160.365 28.6411 158.294 27.9926 154.699 26.8179C148.324 24.7322 147.94 21.3419 147.94 19.9602C147.94 16.3104 151.782 12.4536 157.453 12.4558C164.053 12.4536 168.232 16.8225 167.918 21.1284H160.378C160.57 20.5882 160.49 18.0602 158.017 18.0602C157.589 18.0602 156.302 18.2791 156.125 19.3907C155.874 20.9624 157.945 21.6105 161.536 22.7863ZM142.57 12.3141C145.142 12.316 147.225 14.3953 147.222 16.9604C147.222 19.5236 145.136 21.6006 142.564 21.5987H141.148L141.159 35.7594L131.846 35.7651L131.838 21.5987H130.429C127.859 21.6006 125.771 19.5236 125.771 16.96C125.769 14.3953 127.851 12.316 130.424 12.3138L142.57 12.3141Z" fill="#FFBC00"/>
</svg>
