<svg width="185" height="32" viewBox="0 0 185 32" fill="none" xmlns="http://www.w3.org/2000/svg">
<g clip-path="url(#clip0_220_80)">
<path d="M10.1464 3.35339C10.0185 3.56666 8.65431 6.14726 6.9064 9.49563C6.16034 10.9032 5.22244 12.6734 4.81743 13.4412C4.41243 14.2089 3.66637 15.5952 3.19742 16.5336C2.70715 17.472 1.79056 19.2422 1.12976 20.4578C0.490284 21.6735 1.58884e-05 22.8038 0.0639639 22.9744C0.149228 23.1877 0.746076 23.2517 2.49399 23.2517C5.11586 23.2517 5.11586 23.2517 5.94718 21.4389C6.84245 19.4981 6.35219 19.626 12.7044 19.626C18.4597 19.626 19.1631 19.7114 19.1631 20.4365C19.1631 20.6498 19.2697 20.927 19.3763 21.0336C19.5042 21.1616 19.8026 21.6735 20.0797 22.2066L20.5486 23.145L23.1705 23.209C26.2827 23.273 26.24 23.337 24.8758 20.7777C23.7887 18.709 23.0639 17.3227 21.7423 14.8274C21.2094 13.7611 20.0584 11.607 19.2271 10.0288C18.3957 8.45059 17.2873 6.3392 16.7757 5.33682C16.2641 4.33444 15.7739 3.46003 15.646 3.37472C15.3689 3.16145 10.2743 3.16145 10.1464 3.35339ZM14.8999 11.671C15.8591 13.6118 16.5839 15.3393 16.5199 15.4886C16.3494 15.9151 9.25116 15.9151 9.08064 15.4886C9.01669 15.3393 9.52827 14.0596 10.1891 12.6734C10.8712 11.2658 11.6386 9.68757 11.8943 9.13306C12.342 8.19467 12.683 7.85343 13.0241 8.04538C13.1094 8.08803 13.9407 9.7089 14.8999 11.671ZM27.8387 3.35339C27.7535 3.41737 27.6895 7.87476 27.6895 13.2492V23.0384L28.1798 23.145C28.4356 23.209 29.5227 23.2517 30.5672 23.209L32.4856 23.145L32.5282 20.1592C32.6135 15.7871 32.2298 16.2137 35.9814 16.2137C37.7293 16.2137 39.3067 16.2777 39.4986 16.3417C39.6691 16.4056 40.4791 17.344 41.2678 18.4104C42.0565 19.4981 43.2289 21.0336 43.847 21.8227L44.9768 23.273L47.4708 23.209C49.6237 23.145 49.9647 23.1024 49.9434 22.8038C49.9221 22.6119 48.8989 21.0976 47.6413 19.4554C46.405 17.8132 45.3818 16.3843 45.3818 16.2563C45.3818 16.0004 45.8934 15.7871 46.4689 15.7871C47.0871 15.7871 48.1742 15.1687 48.6858 14.5502C49.3466 13.6971 49.645 12.2682 49.645 9.77288C49.645 6.8084 49.3679 5.57142 48.5152 4.63302C47.2576 3.24676 46.8313 3.2041 36.8554 3.2041C31.974 3.2041 27.9027 3.26808 27.8387 3.35339ZM44.3373 7.5122C44.9342 8.25865 44.9128 11.4577 44.2947 12.2468L43.847 12.8013L38.2836 12.7587L32.6988 12.6947L32.6348 9.85819L32.5709 7.043H38.2622C43.8684 7.043 43.9323 7.043 44.3373 7.5122ZM52.9063 3.35339C52.5227 3.50268 52.5013 22.6119 52.885 22.9957C53.1621 23.273 56.6153 23.3583 57.0417 23.0811C57.2335 22.9531 57.3188 21.4389 57.3614 17.1734C57.4253 12.2468 57.468 11.4151 57.7451 11.3724C57.9369 11.3511 59.1519 12.8013 60.8359 15.062C64.1612 19.5621 64.4596 19.8393 65.8238 19.8393C67.0815 19.8393 67.1028 19.7967 70.8331 14.8914C72.3679 12.8653 73.7321 11.2231 73.8387 11.2445C73.9666 11.2871 74.0731 13.4412 74.1158 17.0028C74.1371 20.7564 74.2437 22.7825 74.3929 22.9744C74.67 23.2943 78.315 23.3796 78.5282 23.0597C78.6134 22.9104 78.6987 7.32025 78.6348 3.46003C78.6348 3.26808 78.1019 3.2041 76.7376 3.2041H74.8405L74.1158 4.09984C73.7321 4.6117 73.3484 5.10222 73.2631 5.23019C73.1779 5.33682 72.645 6.04062 72.0908 6.76574C70.9823 8.23732 69.4049 10.2847 68.4031 11.6283C68.062 12.0975 67.4652 12.9293 67.0815 13.4838C66.3994 14.5075 65.9731 14.8274 65.632 14.6142C65.4402 14.5075 64.5875 13.3772 60.8572 8.42927C59.9833 7.25627 58.7256 5.59275 58.0648 4.73966L56.8498 3.2041L54.9953 3.22543C53.9935 3.22543 53.0342 3.28941 52.9063 3.35339Z" fill="white"/>
<path d="M92.7459 3.77994C92.5327 4.12117 91.9359 5.18753 91.4243 6.18991C90.593 7.8321 89.8469 9.26102 86.9053 14.9341C82.7487 22.9318 81.8321 24.5953 81.4271 24.9792C81.1287 25.2778 80.276 25.3631 75.5439 25.491C67.0388 25.7043 53.7163 26.0242 43.3567 26.2375C38.1982 26.3441 32.4429 26.5147 30.5671 26.6427C28.6913 26.7707 24.6199 26.856 21.5078 26.8773C15.1343 26.8773 12.214 27.0479 12.5338 27.3678C12.7469 27.5811 21.6357 27.773 52.5226 28.1356C62.0295 28.2636 73.0712 28.4768 77.0573 28.6048C81.0647 28.7541 84.5606 28.7967 84.8377 28.7328C85.2 28.6474 85.4985 28.2636 85.8608 27.4745C86.1379 26.856 87.0332 24.9578 87.8432 23.2517C88.6745 21.5455 89.4206 19.9673 89.5272 19.7327C89.6338 19.4981 89.8043 19.1568 89.9322 18.9862C90.0388 18.8156 91.1898 16.4909 92.4688 13.825C93.7691 11.1805 94.8988 8.94112 95.0054 8.87714C95.3678 8.66386 95.7301 9.15439 96.5401 10.8819C96.9878 11.8416 97.4567 12.7374 97.5846 12.8653C97.7125 12.9933 97.8191 13.1852 97.8191 13.2919C97.8191 13.3772 99.0128 15.8938 100.462 18.8369C101.912 21.8014 103.51 25.1285 104.001 26.2375C104.512 27.3465 105.045 28.3915 105.194 28.5621C105.429 28.8181 106.473 28.8394 112.57 28.6048C116.471 28.4768 126.809 28.2636 135.548 28.1356C164.005 27.773 172.233 27.5811 172.446 27.3678C172.787 27.0266 170.336 26.8773 164.325 26.8773C161.341 26.856 157.547 26.7707 155.905 26.6427C154.264 26.5361 148.85 26.3441 143.862 26.2375C138.874 26.1095 133.459 25.9815 131.818 25.9176C130.177 25.8749 124.464 25.7043 119.135 25.5763C112.591 25.4057 109.372 25.2564 109.223 25.0858C108.989 24.8512 107.646 22.3559 104.683 16.6402C100.398 8.36528 98.5012 4.73966 97.9896 3.88657L97.5633 3.2041H95.3678C93.1935 3.2041 93.1509 3.2041 92.7459 3.77994Z" fill="white"/>
<path d="M112.421 3.39605C112.293 3.52401 112.25 7.34158 112.314 13.3772L112.421 23.145H130.966L131.029 21.2043C131.093 19.3275 131.072 19.2422 130.603 19.1142C130.326 19.0502 127.257 18.9862 123.782 18.9862C117.728 18.9862 117.43 18.9649 117.217 18.581C117.089 18.3038 117.004 15.4246 117.004 10.6899V3.2041H114.808C113.593 3.2041 112.527 3.28941 112.421 3.39605ZM133.481 3.33206C133.054 3.52401 133.076 22.6758 133.502 23.0171C133.694 23.1877 134.525 23.2517 135.89 23.209L138 23.145V3.31074L135.868 3.26808C134.696 3.24676 133.609 3.28941 133.481 3.33206ZM140.6 3.35339C140.472 3.48136 140.387 7.40556 140.515 7.5122C140.536 7.53352 142.391 7.59751 144.608 7.66149L148.658 7.78945L148.722 15.2326C148.743 20.2872 148.85 22.7825 148.999 22.9744C149.34 23.3583 153.305 23.3583 153.646 22.9744C153.795 22.7825 153.902 20.2872 153.923 15.2326L153.987 7.78945L158.037 7.66149C160.275 7.59751 162.108 7.53352 162.151 7.5122C162.172 7.49087 162.172 6.53114 162.151 5.37948L162.087 3.31074L151.408 3.24676C145.546 3.22543 140.664 3.26808 140.6 3.35339ZM164.432 3.46003C164.368 3.60932 164.346 8.10936 164.368 13.4412L164.432 23.145H184.469L184.575 21.3749C184.639 20.4151 184.661 19.5194 184.618 19.4128C184.575 19.2848 181.74 19.1995 177.008 19.1995C170.336 19.1995 169.462 19.1568 169.356 18.8583C169.142 18.3038 169.206 15.5739 169.441 15.126C169.654 14.7421 169.974 14.7208 176.369 14.7208C181.591 14.7208 183.083 14.6568 183.104 14.4435C183.168 13.3985 183.019 11.5857 182.827 11.3724C182.657 11.1591 181.037 11.0952 176.049 11.0952C170.251 11.0952 169.462 11.0525 169.356 10.7539C169.164 10.2634 169.206 8.04538 169.398 7.74679C169.526 7.53352 171.338 7.46954 176.816 7.42689L184.042 7.36291V3.31074L174.28 3.24676C166.585 3.2041 164.496 3.24676 164.432 3.46003ZM93.6625 19.9033C92.8951 21.4602 92.277 22.8465 92.277 22.9957C92.277 23.3157 98.1602 23.3583 98.352 23.0384C98.5226 22.7611 95.6662 17.0668 95.3465 17.0668C95.1973 17.0668 94.4299 18.3464 93.6625 19.9033Z" fill="white"/>
</g>
<defs>
<clipPath id="clip0_220_80">
<rect width="184.661" height="32" fill="white"/>
</clipPath>
</defs>
</svg>
