<svg width="7" height="15" viewBox="0 0 7 15" fill="none" xmlns="http://www.w3.org/2000/svg">
<path d="M5.02357 9.14331V2.28115C5.02357 1.87707 4.86306 1.48955 4.57733 1.20382C4.29161 0.918095 3.90408 0.757577 3.5 0.757577C3.09593 0.757577 2.7084 0.918095 2.42268 1.20382C2.13695 1.48955 1.97643 1.87707 1.97643 2.28115V9.14331C1.48723 9.47017 1.11612 9.9457 0.9179 10.4997C0.719683 11.0536 0.704873 11.6566 0.875658 12.2196C1.04644 12.7827 1.39377 13.2758 1.86633 13.6263C2.3389 13.9768 2.91165 14.166 3.5 14.166C4.08835 14.166 4.66111 13.9768 5.13368 13.6263C5.60624 13.2758 5.95357 12.7827 6.12435 12.2196C6.29513 11.6566 6.28032 11.0536 6.08211 10.4997C5.88389 9.9457 5.51278 9.47017 5.02357 9.14331Z" stroke="white" stroke-width="1.5" stroke-linecap="round" stroke-linejoin="round"/>
</svg>
