<svg width="160" height="38" viewBox="0 0 160 38" fill="none" xmlns="http://www.w3.org/2000/svg">
<g clip-path="url(#clip0_220_89)">
<path d="M121.741 15.0628C121.103 14.6586 120.355 14.4623 119.601 14.5009H116.921V18.6563H119.601C120.513 18.6563 121.226 18.469 121.741 18.0944C121.98 17.919 122.175 17.6898 122.309 17.4252C122.443 17.1606 122.513 16.8682 122.513 16.5716C122.513 16.275 122.443 15.9825 122.309 15.7179C122.175 15.4534 121.98 15.2241 121.741 15.0487V15.0628Z" fill="white"/>
<path d="M0.0552368 0V38H159.291V0H0.0552368ZM3.08307 35.0949V3.0626H96.9289V35.0923L3.08307 35.0949ZM103.956 26.4104C103.957 26.1437 104.02 25.8808 104.139 25.6421C104.257 25.4034 104.43 25.1952 104.642 25.0336C105.106 24.6537 105.691 24.4543 106.291 24.4719C106.881 24.4538 107.458 24.6537 107.911 25.0336C108.119 25.1979 108.287 25.4071 108.403 25.6455C108.519 25.8839 108.579 26.1454 108.58 26.4104C108.582 26.6798 108.522 26.9462 108.407 27.1895C108.291 27.4328 108.121 27.6467 107.911 27.8151C107.461 28.2019 106.884 28.4081 106.291 28.3939C105.689 28.4073 105.103 28.2016 104.642 27.8151C104.427 27.6494 104.254 27.4365 104.135 27.1929C104.016 26.9493 103.955 26.6815 103.956 26.4104ZM112.217 28.0793V10.581H119.708C122.114 10.581 124.003 11.1138 125.376 12.1796C126.748 13.2454 127.431 14.7113 127.423 16.5769C127.423 18.4498 126.737 19.9175 125.365 20.9796C123.992 22.0415 122.106 22.5753 119.708 22.5808H116.933V28.0681L112.217 28.0793ZM149.455 28.0793H144.832V23.7976C144.832 22.5858 144.848 21.4616 144.88 20.426C144.911 19.3808 144.936 18.6505 144.956 18.2374L144.984 17.6164H144.956C144.956 17.6164 144.809 17.8129 144.543 18.2064C144.276 18.6 143.981 19.0325 143.7 19.5044C143.419 19.9763 143.228 20.2293 143.2 20.2602L140.903 23.7609H138.453L136.156 20.2602C136.128 20.2264 135.962 19.9791 135.656 19.5044C135.35 19.0297 135.066 18.5997 134.813 18.2064C134.56 17.8132 134.412 17.6164 134.4 17.6164H134.372L134.4 18.2374C134.419 18.6512 134.444 19.381 134.476 20.426C134.507 21.4713 134.524 22.6006 134.524 23.7976V28.0681H129.887V10.581H134.313L137.993 15.8856C138.346 16.395 138.693 16.9091 139.032 17.428C139.316 17.8634 139.49 18.1333 139.552 18.24C139.58 18.2978 139.617 18.3509 139.661 18.3972H139.703C139.748 18.3506 139.785 18.2975 139.813 18.24C139.877 18.1333 140.049 17.8634 140.332 17.428C140.673 16.9096 141.019 16.3954 141.372 15.8856L145.051 10.581H149.469L149.455 28.0793Z" fill="white"/>
<path d="M10.6247 19.3411C10.6181 18.094 10.8907 16.8614 11.4224 15.7334C11.9337 14.6293 12.6693 13.6437 13.5822 12.8395C14.5304 12.0165 15.624 11.378 16.8068 10.957C18.0738 10.4996 19.4115 10.2694 20.7585 10.2771C22.5676 10.2555 24.3535 10.6853 25.9548 11.5275C27.458 12.3025 28.7258 13.4668 29.6258 14.899L24.8511 16.0229C24.353 15.4942 23.737 15.0909 23.0534 14.8457C22.3196 14.5576 21.5385 14.4089 20.7502 14.4074C19.1511 14.4074 17.8777 14.8626 16.9304 15.773C16.4548 16.2337 16.0818 16.7897 15.8359 17.4046C15.5901 18.0195 15.4768 18.6794 15.5035 19.3411C15.5035 20.8225 15.9913 22.0075 16.9668 22.8951C17.9425 23.7831 19.2026 24.2258 20.7473 24.224C21.6523 24.231 22.5479 24.0392 23.3708 23.6621C24.1119 23.3519 24.754 22.8447 25.2273 22.1954L29.9685 23.2883C29.1316 24.8721 27.8444 26.1724 26.2693 27.025C24.5866 27.9666 22.6866 28.4509 20.7585 28.4297C18.9903 28.4441 17.2436 28.0408 15.6606 27.2525C14.1636 26.5203 12.893 25.3959 11.9839 23.9989C11.079 22.6155 10.6059 20.9941 10.6247 19.3411ZM29.547 28.0507L37.3527 10.6311H41.7933L49.6128 28.0507H44.5571L43.4336 25.3309H35.7262L34.6027 28.0507H29.547ZM37.215 21.6619H41.9281L40.5491 18.2622C40.4028 17.9065 40.2642 17.5477 40.1333 17.186C40.0026 16.8314 39.8753 16.4755 39.7513 16.1184C39.7095 15.9752 39.657 15.8353 39.5942 15.6999H39.5661C39.5032 15.8352 39.4506 15.9751 39.4089 16.1184C39.2863 16.4749 39.1617 16.8308 39.0353 17.186C38.9086 17.5481 38.7728 17.907 38.6281 18.2622L37.215 21.6619ZM51.2278 28.0507V10.6311H58.5024C60.9365 10.6311 62.857 11.1761 64.2633 12.2664C64.9393 12.7665 65.4844 13.4227 65.8522 14.179C66.2199 14.9353 66.3995 15.7693 66.3755 16.61C66.4018 17.6846 66.085 18.7396 65.4711 19.6219C64.8066 20.5175 63.9019 21.2064 62.8619 21.6085L67.1842 28.0507H61.9346L58.3115 22.3415H55.9156V28.0507H51.2278ZM55.9128 18.6722H59.1402C59.9116 18.6722 60.495 18.4634 60.89 18.0457C61.2696 17.6627 61.4826 17.1451 61.4826 16.6057C61.4826 16.0664 61.2696 15.5488 60.89 15.1658C60.4947 14.7483 59.9116 14.5393 59.1402 14.5393H55.9128V18.6722ZM70.1897 28.0507V10.6311H78.7169C80.471 10.6096 82.2076 10.9831 83.7979 11.724C85.2759 12.4106 86.5384 13.488 87.4491 14.8399C89.7924 18.3299 89.1031 23.0291 85.8567 25.6989C84.8997 26.4664 83.8108 27.0529 82.6434 27.4297C81.3749 27.8483 80.0469 28.058 78.7111 28.0507H70.1897ZM74.8746 24.1399H78.7143C80.064 24.179 81.3815 23.7233 82.4188 22.8586C82.9163 22.4374 83.311 21.9082 83.5729 21.3112C83.8348 20.7142 83.9569 20.0653 83.93 19.4139C83.9528 18.7503 83.8278 18.0899 83.564 17.4806C83.3003 16.8712 82.9044 16.3281 82.4051 15.8907C81.3886 14.9919 80.0705 14.5102 78.7143 14.5419H74.8746V24.1399Z" fill="white"/>
</g>
<defs>
<clipPath id="clip0_220_89">
<rect width="159.347" height="38" fill="white"/>
</clipPath>
</defs>
</svg>
