<svg width="56" height="56" viewBox="0 0 56 56" fill="none" xmlns="http://www.w3.org/2000/svg">
<path d="M32.6667 34.4398V8.16641C32.6667 6.61931 32.0521 5.13558 30.9581 4.04162C29.8642 2.94765 28.3804 2.33307 26.8333 2.33307C25.2862 2.33307 23.8025 2.94765 22.7085 4.04162C21.6146 5.13558 21 6.61931 21 8.16641V34.4398C19.127 35.6912 17.7061 37.5119 16.9472 39.6328C16.1882 41.7538 16.1315 44.0625 16.7854 46.2182C17.4393 48.3738 18.7691 50.262 20.5784 51.6039C22.3878 52.9458 24.5807 53.6703 26.8333 53.6703C29.086 53.6703 31.2789 52.9458 33.0882 51.6039C34.8975 50.262 36.2273 48.3738 36.8812 46.2182C37.5351 44.0625 37.4784 41.7538 36.7195 39.6328C35.9606 37.5119 34.5397 35.6912 32.6667 34.4398Z" stroke="white" stroke-width="1.5" stroke-linecap="round" stroke-linejoin="round"/>
</svg>
