<svg width="157" height="36" viewBox="0 0 157 36" fill="none" xmlns="http://www.w3.org/2000/svg">
<path fill-rule="evenodd" clip-rule="evenodd" d="M74.0908 0.103358V28.7515C74.0908 36.1453 65.4259 37.3005 61.8453 31.4087L54.3371 19.0496V28.7522C54.4522 36.1461 45.7889 37.3012 42.2075 31.4095L34.6993 19.0504V27.8289C34.6993 32.3336 32.042 34.7599 27.9993 34.7599H18.411C-5.96334 34.7599 -6.19359 0.104923 18.0649 0.104923H22.2235V9.92422H17.6028C7.55249 9.92422 6.51323 24.9414 18.2959 24.9414H23.7256C24.3028 24.9414 24.7656 24.3634 24.7656 23.7862V6.45716C24.7656 -0.0117686 33.0828 -3.13111 37.4725 4.37786C41.978 12.002 44.5194 16.5075 44.5194 16.5075V6.45716C44.5194 -0.0117686 52.7214 -3.13111 57.1103 4.37786C61.6158 12.002 64.1572 16.5075 64.1572 16.5075V0.103358H74.0908Z" fill="#C82636"/>
<path fill-rule="evenodd" clip-rule="evenodd" d="M68.5451 0.102743V28.1744C68.5451 28.7508 68.3141 29.2129 67.9671 29.3296C67.621 29.3296 67.274 29.2137 67.043 28.8675C66.9279 28.6365 55.4913 10.2682 52.603 5.64831C52.0258 4.83931 51.1017 4.49315 50.2927 4.72419C49.3686 4.95522 48.9065 5.88013 48.9065 6.91939V28.1752C48.9065 28.7516 48.6755 29.2137 48.3285 29.3304C47.9824 29.3304 47.6354 29.2145 47.4044 28.8683C47.2893 28.6373 35.7376 10.269 32.9644 5.6491C32.3865 4.8401 31.4623 4.49394 30.6541 4.72497C29.73 4.956 29.1528 5.88091 29.1528 6.92017V28.0601C29.1528 28.6381 28.6907 29.2153 27.9976 29.2153H17.7178C9.28549 29.2153 5.47306 23.0941 5.47306 17.4326C5.47306 11.5416 9.51574 5.64989 17.3709 5.64989H22.2226V4.49472H17.3709C8.82264 4.49472 4.31789 11.0796 4.31789 17.4326C4.31789 23.6705 8.59239 30.3704 17.7178 30.3704H27.9992C28.5764 30.3704 29.1543 30.141 29.6164 29.6773C30.0785 29.2153 30.3095 28.6388 30.3095 28.0609V6.91861C30.3095 6.34141 30.5405 5.87935 30.8867 5.76344C31.3488 5.64832 31.6957 5.87935 32.0419 6.22551C34.8143 10.8462 46.3659 29.2129 46.4818 29.4439C46.9439 30.2529 47.868 30.6007 48.6762 30.3681C49.2542 30.1386 49.9473 29.4439 49.9473 28.1744V6.91861C49.9473 6.34141 50.1784 5.87935 50.6404 5.76344C50.9874 5.64832 51.3335 5.87935 51.6805 6.22551C54.4529 10.8462 66.0045 29.2129 66.1204 29.4439C66.6976 30.2529 67.5066 30.6007 68.3148 30.3681C69.0079 30.1386 69.7018 29.4439 69.7018 28.1744V0.102743H68.5451Z" fill="white"/>
<path fill-rule="evenodd" clip-rule="evenodd" d="M105.311 21.4554C104.936 16.6882 100.921 14.43 96.5302 14.43C90.5084 14.43 87.1215 18.6963 87.1215 24.4672C87.1215 29.9872 90.886 34.0009 96.5302 34.0009C101.297 34.0009 104.809 31.2417 105.438 26.3494H100.546C100.169 28.6067 98.7884 30.1122 96.4043 30.1122C93.2692 30.1122 92.2647 26.9754 92.2647 24.3413C92.2647 21.5822 93.2701 18.3195 96.531 18.3195C98.6642 18.3195 100.045 19.449 100.296 21.4563L105.311 21.4554ZM107.32 24.2163C107.32 30.1122 111.083 34.0009 116.98 34.0009C122.751 34.0009 126.513 30.1122 126.513 24.2163C126.513 18.3186 122.751 14.43 116.98 14.43C111.083 14.4308 107.32 18.3195 107.32 24.2163ZM112.463 24.2163C112.463 21.2045 113.467 18.3186 116.981 18.3186C120.367 18.3186 121.498 21.2045 121.498 24.2163C121.498 27.2263 120.368 30.1122 116.981 30.1122C113.466 30.1122 112.463 27.2263 112.463 24.2163ZM128.897 33.499H133.791V22.7091C133.791 19.0714 136.3 18.4445 137.303 18.4445C140.44 18.4445 140.315 20.9528 140.315 23.0859V33.4982H145.458V23.2135C145.458 20.8294 145.96 18.4462 148.845 18.4462C151.73 18.4462 151.982 20.4526 151.982 22.9634V33.5007H157V21.0812C157 16.3139 154.239 14.4317 150.225 14.4317C147.716 14.4317 145.708 15.9371 144.705 17.5685C143.702 15.3111 141.569 14.4317 139.31 14.4317C136.927 14.4317 134.919 15.5612 133.665 17.4434H133.54V14.9335H128.897V33.499ZM79.9694 30.8649C79.9694 29.2353 81.3498 27.8549 83.1061 27.8549C84.8634 27.8549 86.2429 29.2353 86.2429 30.8649C86.2473 31.2781 86.1691 31.6879 86.013 32.0704C85.8569 32.4529 85.626 32.8005 85.3338 33.0926C85.0417 33.3847 84.6942 33.6156 84.3116 33.7717C83.9291 33.9278 83.5193 34.006 83.1061 34.0017C82.6931 34.0057 82.2834 33.9273 81.9011 33.771C81.5187 33.6148 81.1713 33.3839 80.8792 33.0918C80.5872 32.7998 80.3563 32.4524 80.2 32.07C80.0438 31.6876 79.9654 31.278 79.9694 30.8649Z" fill="white"/>
</svg>
