<svg width="35" height="50" viewBox="0 0 35 50" fill="none" xmlns="http://www.w3.org/2000/svg">
<path d="M17.3997 0.00893748L17.2406 13.4678" stroke="white" stroke-width="1.5"/>
<path d="M17.3993 13.0272C9.97859 13.0272 3.63109 17.5723 1.10144 23.994C0.373328 25.8424 0.857488 27.6164 1.99327 28.8938C3.11302 30.1532 4.86184 30.9366 6.73551 30.9366H28.063C29.9367 30.9366 31.6855 30.1532 32.8053 28.8938C33.941 27.6164 34.4252 25.8424 33.6971 23.994C31.1674 17.5723 24.8199 13.0272 17.3993 13.0272Z" stroke="white" stroke-width="1.5"/>
<path d="M24.3372 30.496C24.3372 34.3274 21.1607 37.4333 17.2423 37.4333C13.3238 37.4333 10.1473 34.3274 10.1473 30.496" stroke="white" stroke-width="1.5"/>
<path d="M3.52207 42.1632L9.19805 36.4872" stroke="white" stroke-width="1.5" stroke-linecap="round"/>
<path d="M17.3527 49.2439L17.2733 41.2173" stroke="white" stroke-width="1.5" stroke-linecap="round"/>
<path d="M31.3681 42.1794L25.6167 36.58" stroke="white" stroke-width="1.5" stroke-linecap="round"/>
</svg>
