<svg width="23" height="23" viewBox="0 0 23 23" fill="none" xmlns="http://www.w3.org/2000/svg">
<g clip-path="url(#clip0_117_14)">
<path d="M22.0416 2.87495C21.1239 3.52228 20.1078 4.01739 19.0324 4.3412C18.4552 3.67756 17.6882 3.2072 16.835 2.99371C15.9818 2.78023 15.0836 2.83393 14.2619 3.14755C13.4402 3.46117 12.7347 4.01958 12.2407 4.74726C11.7467 5.47493 11.4881 6.33676 11.4999 7.21619V8.17452C9.81579 8.21819 8.14699 7.84467 6.64215 7.08724C5.13732 6.32981 3.84317 5.21197 2.87495 3.83328C2.87495 3.83328 -0.958377 12.4583 7.6666 16.2916C5.69295 17.6313 3.3418 18.303 0.958286 18.2082C9.58326 22.9999 20.1249 18.2082 20.1249 7.18744C20.124 6.9205 20.0984 6.65422 20.0482 6.39202C21.0263 5.42746 21.7165 4.20963 22.0416 2.87495Z" stroke="white" stroke-width="1.5" stroke-linecap="round" stroke-linejoin="round"/>
</g>
<defs>
<clipPath id="clip0_117_14">
<rect width="22.0645" height="22.0645" fill="white" transform="scale(1.04239)"/>
</clipPath>
</defs>
</svg>
