<svg width="185" height="32" viewBox="0 0 185 32" fill="none" xmlns="http://www.w3.org/2000/svg">
<g clip-path="url(#clip0_99_296)">
<path d="M10.1464 3.3529C10.0185 3.56618 8.65431 6.14677 6.9064 9.49514C6.16034 10.9027 5.22244 12.6729 4.81743 13.4407C4.41243 14.2084 3.66637 15.5947 3.19742 16.5331C2.70715 17.4715 1.79056 19.2417 1.12976 20.4573C0.490284 21.673 1.58884e-05 22.8033 0.0639639 22.9739C0.149228 23.1872 0.746076 23.2512 2.49399 23.2512C5.11586 23.2512 5.11586 23.2512 5.94718 21.4384C6.84245 19.4976 6.35219 19.6256 12.7044 19.6256C18.4597 19.6256 19.1631 19.7109 19.1631 20.436C19.1631 20.6493 19.2697 20.9265 19.3763 21.0332C19.5042 21.1611 19.8026 21.673 20.0797 22.2061L20.5486 23.1445L23.1705 23.2085C26.2827 23.2725 26.24 23.3365 24.8758 20.7772C23.7887 18.7085 23.0639 17.3222 21.7423 14.8269C21.2094 13.7606 20.0584 11.6065 19.2271 10.0283C18.3957 8.4501 17.2873 6.33871 16.7757 5.33633C16.2641 4.33395 15.7739 3.45954 15.646 3.37423C15.3689 3.16096 10.2743 3.16096 10.1464 3.3529ZM14.8999 11.6705C15.8591 13.6113 16.5839 15.3388 16.5199 15.4881C16.3494 15.9146 9.25116 15.9146 9.08064 15.4881C9.01669 15.3388 9.52827 14.0592 10.1891 12.6729C10.8712 11.2653 11.6386 9.68708 11.8943 9.13257C12.342 8.19418 12.683 7.85294 13.0241 8.04489C13.1094 8.08754 13.9407 9.70841 14.8999 11.6705ZM27.8387 3.3529C27.7535 3.41689 27.6895 7.87427 27.6895 13.2487V23.0379L28.1798 23.1445C28.4356 23.2085 29.5227 23.2512 30.5672 23.2085L32.4856 23.1445L32.5282 20.1587C32.6135 15.7867 32.2298 16.2132 35.9814 16.2132C37.7293 16.2132 39.3067 16.2772 39.4986 16.3412C39.6691 16.4051 40.4791 17.3435 41.2678 18.4099C42.0565 19.4976 43.2289 21.0332 43.847 21.8223L44.9768 23.2725L47.4708 23.2085C49.6237 23.1445 49.9647 23.1019 49.9434 22.8033C49.9221 22.6114 48.8989 21.0971 47.6413 19.4549C46.405 17.8127 45.3818 16.3838 45.3818 16.2559C45.3818 15.9999 45.8934 15.7867 46.4689 15.7867C47.0871 15.7867 48.1742 15.1682 48.6858 14.5497C49.3466 13.6966 49.645 12.2677 49.645 9.77239C49.645 6.80791 49.3679 5.57093 48.5152 4.63254C47.2576 3.24627 46.8313 3.20361 36.8554 3.20361C31.974 3.20361 27.9027 3.2676 27.8387 3.3529ZM44.3373 7.51171C44.9342 8.25816 44.9128 11.4572 44.2947 12.2463L43.847 12.8009L38.2836 12.7582L32.6988 12.6942L32.6348 9.8577L32.5709 7.04251H38.2622C43.8684 7.04251 43.9323 7.04251 44.3373 7.51171ZM52.9063 3.3529C52.5227 3.50219 52.5013 22.6114 52.885 22.9953C53.1621 23.2725 56.6153 23.3578 57.0417 23.0806C57.2335 22.9526 57.3188 21.4384 57.3614 17.1729C57.4253 12.2463 57.468 11.4146 57.7451 11.3719C57.9369 11.3506 59.1519 12.8009 60.8359 15.0615C64.1612 19.5616 64.4596 19.8388 65.8238 19.8388C67.0815 19.8388 67.1028 19.7962 70.8331 14.8909C72.3679 12.8648 73.7321 11.2226 73.8387 11.244C73.9666 11.2866 74.0731 13.4407 74.1158 17.0023C74.1371 20.7559 74.2437 22.782 74.3929 22.9739C74.67 23.2938 78.315 23.3791 78.5282 23.0592C78.6134 22.9099 78.6987 7.31976 78.6348 3.45954C78.6348 3.2676 78.1019 3.20361 76.7376 3.20361H74.8405L74.1158 4.09936C73.7321 4.61121 73.3484 5.10173 73.2631 5.2297C73.1779 5.33633 72.645 6.04013 72.0908 6.76526C70.9823 8.23683 69.4049 10.2842 68.4031 11.6279C68.062 12.0971 67.4652 12.9288 67.0815 13.4833C66.3994 14.507 65.9731 14.8269 65.632 14.6137C65.4402 14.507 64.5875 13.3767 60.8572 8.42878C59.9833 7.25578 58.7256 5.59226 58.0648 4.73917L56.8498 3.20361L54.9953 3.22494C53.9935 3.22494 53.0342 3.28892 52.9063 3.3529Z" fill="black"/>
<path d="M92.746 3.77945C92.5328 4.12068 91.936 5.18704 91.4244 6.18942C90.593 7.83161 89.847 9.26054 86.9054 14.9336C82.7487 22.9313 81.8322 24.5948 81.4272 24.9787C81.1287 25.2773 80.2761 25.3626 75.5439 25.4905C67.0389 25.7038 53.7164 26.0237 43.3568 26.237C38.1983 26.3436 32.443 26.5142 30.5672 26.6422C28.6914 26.7702 24.62 26.8555 21.5079 26.8768C15.1344 26.8768 12.2141 27.0474 12.5338 27.3673C12.747 27.5806 21.6358 27.7725 52.5227 28.1351C62.0296 28.2631 73.0713 28.4763 77.0574 28.6043C81.0648 28.7536 84.5606 28.7962 84.8377 28.7323C85.2001 28.647 85.4985 28.2631 85.8609 27.474C86.138 26.8555 87.0333 24.9574 87.8433 23.2512C88.6746 21.545 89.4207 19.9668 89.5272 19.7322C89.6338 19.4976 89.8043 19.1564 89.9322 18.9857C90.0388 18.8151 91.1899 16.4905 92.4688 13.8246C93.7691 11.18 94.8989 8.94063 95.0054 8.87665C95.3678 8.66338 95.7302 9.1539 96.5402 10.8814C96.9878 11.8411 97.4568 12.7369 97.5847 12.8648C97.7126 12.9928 97.8192 13.1847 97.8192 13.2914C97.8192 13.3767 99.0129 15.8933 100.462 18.8364C101.912 21.8009 103.511 25.128 104.001 26.237C104.512 27.346 105.045 28.391 105.195 28.5616C105.429 28.8176 106.473 28.8389 112.57 28.6043C116.471 28.4763 126.809 28.2631 135.548 28.1351C164.005 27.7725 172.233 27.5806 172.446 27.3673C172.788 27.0261 170.336 26.8768 164.325 26.8768C161.341 26.8555 157.547 26.7702 155.905 26.6422C154.264 26.5356 148.85 26.3436 143.862 26.237C138.874 26.109 133.46 25.9811 131.818 25.9171C130.177 25.8744 124.464 25.7038 119.135 25.5758C112.591 25.4052 109.372 25.2559 109.223 25.0853C108.989 24.8507 107.646 22.3554 104.683 16.6397C100.398 8.36479 98.5013 4.73917 97.9897 3.88608L97.5634 3.20361H95.3678C93.1936 3.20361 93.151 3.20361 92.746 3.77945Z" fill="black"/>
<path d="M112.421 3.39556C112.293 3.52352 112.25 7.34109 112.314 13.3767L112.421 23.1445H130.966L131.029 21.2038C131.093 19.327 131.072 19.2417 130.603 19.1137C130.326 19.0497 127.257 18.9857 123.782 18.9857C117.728 18.9857 117.43 18.9644 117.217 18.5805C117.089 18.3033 117.004 15.4241 117.004 10.6895V3.20361H114.808C113.593 3.20361 112.527 3.28892 112.421 3.39556ZM133.481 3.33158C133.054 3.52352 133.076 22.6753 133.502 23.0166C133.694 23.1872 134.525 23.2512 135.89 23.2085L138 23.1445V3.31025L135.868 3.26759C134.696 3.24627 133.609 3.28892 133.481 3.33158ZM140.6 3.3529C140.472 3.48087 140.387 7.40507 140.515 7.51171C140.536 7.53303 142.391 7.59702 144.608 7.661L148.658 7.78896L148.722 15.2322C148.743 20.2867 148.85 22.782 148.999 22.9739C149.34 23.3578 153.305 23.3578 153.646 22.9739C153.795 22.782 153.902 20.2867 153.923 15.2322L153.987 7.78896L158.037 7.661C160.275 7.59702 162.108 7.53303 162.151 7.51171C162.172 7.49038 162.172 6.53066 162.151 5.37899L162.087 3.31025L151.408 3.24627C145.546 3.22494 140.664 3.2676 140.6 3.3529ZM164.432 3.45954C164.368 3.60883 164.346 8.10887 164.368 13.4407L164.432 23.1445H184.469L184.575 21.3744C184.639 20.4147 184.661 19.5189 184.618 19.4123C184.575 19.2843 181.74 19.199 177.008 19.199C170.336 19.199 169.462 19.1564 169.356 18.8578C169.142 18.3033 169.206 15.5734 169.441 15.1255C169.654 14.7416 169.974 14.7203 176.369 14.7203C181.591 14.7203 183.083 14.6563 183.104 14.443C183.168 13.398 183.019 11.5852 182.827 11.3719C182.657 11.1587 181.037 11.0947 176.049 11.0947C170.251 11.0947 169.462 11.052 169.356 10.7534C169.164 10.2629 169.206 8.04489 169.398 7.74631C169.526 7.53303 171.338 7.46905 176.816 7.4264L184.042 7.36242V3.31025L174.28 3.24627C166.585 3.20361 164.496 3.24627 164.432 3.45954ZM93.6625 19.9028C92.8951 21.4597 92.277 22.846 92.277 22.9953C92.277 23.3152 98.1602 23.3578 98.352 23.0379C98.5226 22.7607 95.6662 17.0663 95.3465 17.0663C95.1973 17.0663 94.4299 18.3459 93.6625 19.9028Z" fill="black"/>
</g>
<defs>
<clipPath id="clip0_99_296">
<rect width="184.661" height="32" fill="white"/>
</clipPath>
</defs>
</svg>
