<svg width="1440" height="506" viewBox="0 0 1440 506" fill="none" xmlns="http://www.w3.org/2000/svg">
<path d="M566.558 505.394L566.558 505.397C566.549 505.447 566.53 505.465 566.518 505.474C566.5 505.488 566.47 505.5 566.431 505.5C566.392 505.5 566.36 505.488 566.341 505.473C566.327 505.462 566.308 505.443 566.298 505.393C566.298 505.392 566.298 505.392 566.298 505.392L565.807 505.487C563.249 491.909 555.242 484.145 541.539 482.026L566.558 505.394ZM566.558 505.394C567.818 498.703 570.396 493.353 574.37 489.362C578.344 485.371 583.68 482.774 590.396 481.527L590.397 481.526C590.447 481.517 590.465 481.499 590.474 481.487C590.488 481.469 590.5 481.439 590.5 481.399C590.5 481.36 590.488 481.328 590.473 481.309C590.462 481.294 590.442 481.275 590.392 481.265L589.987 481.187V481.18C583.378 479.871 578.114 477.236 574.218 473.225C570.243 469.132 567.73 463.644 566.637 456.774C566.628 456.721 566.608 456.7 566.596 456.689C566.578 456.675 566.549 456.662 566.512 456.66C566.475 456.659 566.443 456.669 566.422 456.683C566.406 456.694 566.385 456.715 566.371 456.764C564.164 465.263 562.036 470.358 558.375 473.843C554.72 477.322 549.598 479.137 541.601 481.265C541.552 481.278 541.533 481.299 541.522 481.314C541.509 481.334 541.498 481.366 541.5 481.404C541.502 481.441 541.515 481.471 541.531 481.489C541.543 481.503 541.565 481.523 541.617 481.532L566.558 505.394Z" fill="#060606" stroke="#060606"/>
<line x1="1440" y1="481.578" y2="481.578" stroke="#060606"/>
<line x1="566.5" x2="566.5" y2="481" stroke="#060606"/>
</svg>
