<svg width="23" height="23" viewBox="0 0 23 23" fill="none" xmlns="http://www.w3.org/2000/svg">
<g clip-path="url(#clip0_117_28)">
<path d="M21.6008 6.15256C21.4869 5.69774 21.2551 5.28102 20.9286 4.94449C20.6022 4.60796 20.1927 4.36353 19.7416 4.2359C18.0933 3.8334 11.5 3.8334 11.5 3.8334C11.5 3.8334 4.90665 3.8334 3.25832 4.27423C2.80718 4.40186 2.39772 4.64629 2.07128 4.98282C1.74484 5.31936 1.513 5.73608 1.39916 6.19089C1.09749 7.86371 0.949926 9.56068 0.958324 11.2605C0.947571 12.973 1.09514 14.6829 1.39916 16.3684C1.52466 16.809 1.7617 17.2099 2.08738 17.5322C2.41305 17.8546 2.81636 18.0874 3.25832 18.2084C4.90665 18.6492 11.5 18.6492 11.5 18.6492C11.5 18.6492 18.0933 18.6492 19.7416 18.2084C20.1927 18.0807 20.6022 17.8363 20.9286 17.4998C21.2551 17.1632 21.4869 16.7465 21.6008 16.2917C21.9001 14.6315 22.0477 12.9474 22.0416 11.2605C22.0524 9.54788 21.9048 7.83797 21.6008 6.15256Z" stroke="white" stroke-width="1.5" stroke-linecap="round" stroke-linejoin="round"/>
<path d="M9.34376 14.3941L14.8542 11.2604L9.34376 8.12666V14.3941Z" stroke="white" stroke-width="1.5" stroke-linecap="round" stroke-linejoin="round"/>
</g>
<defs>
<clipPath id="clip0_117_28">
<rect width="22.0645" height="22.0645" fill="white" transform="scale(1.04239)"/>
</clipPath>
</defs>
</svg>
