<svg width="160" height="38" viewBox="0 0 160 38" fill="none" xmlns="http://www.w3.org/2000/svg">
<g clip-path="url(#clip0_99_300)">
<path d="M121.741 15.0623C121.103 14.6581 120.355 14.4618 119.601 14.5004H116.921V18.6559H119.601C120.513 18.6559 121.226 18.4685 121.741 18.0939C121.981 17.9186 122.175 17.6893 122.309 17.4247C122.443 17.1601 122.513 16.8677 122.513 16.5711C122.513 16.2745 122.443 15.982 122.309 15.7175C122.175 15.4529 121.981 15.2236 121.741 15.0482V15.0623Z" fill="black"/>
<path d="M0.0551758 0V38H159.291V0H0.0551758ZM3.08301 35.0949V3.0626H96.9288V35.0923L3.08301 35.0949ZM103.956 26.4104C103.957 26.1437 104.02 25.8808 104.139 25.6421C104.257 25.4034 104.43 25.1952 104.642 25.0336C105.106 24.6537 105.691 24.4543 106.29 24.4719C106.881 24.4538 107.458 24.6537 107.911 25.0336C108.119 25.1979 108.287 25.4071 108.403 25.6455C108.519 25.8839 108.579 26.1454 108.58 26.4104C108.581 26.6798 108.522 26.9462 108.407 27.1895C108.291 27.4328 108.121 27.6467 107.911 27.8151C107.461 28.2019 106.884 28.4081 106.29 28.3939C105.689 28.4073 105.103 28.2016 104.642 27.8151C104.427 27.6494 104.254 27.4365 104.135 27.1929C104.016 26.9493 103.955 26.6815 103.956 26.4104ZM112.217 28.0793V10.581H119.708C122.114 10.581 124.003 11.1138 125.376 12.1796C126.748 13.2454 127.431 14.7113 127.423 16.5769C127.423 18.4498 126.737 19.9175 125.364 20.9796C123.992 22.0415 122.106 22.5753 119.708 22.5808H116.933V28.0681L112.217 28.0793ZM149.455 28.0793H144.832V23.7976C144.832 22.5858 144.848 21.4616 144.88 20.426C144.91 19.3808 144.936 18.6505 144.955 18.2374L144.984 17.6164H144.955C144.955 17.6164 144.809 17.8129 144.543 18.2064C144.276 18.6 143.981 19.0325 143.7 19.5044C143.419 19.9763 143.228 20.2293 143.2 20.2602L140.902 23.7609H138.453L136.156 20.2602C136.128 20.2264 135.962 19.9791 135.656 19.5044C135.35 19.0297 135.066 18.5997 134.813 18.2064C134.56 17.8132 134.412 17.6164 134.4 17.6164H134.372L134.4 18.2374C134.419 18.6512 134.444 19.381 134.476 20.426C134.507 21.4713 134.524 22.6006 134.524 23.7976V28.0681H129.887V10.581H134.313L137.993 15.8856C138.346 16.395 138.693 16.9091 139.032 17.428C139.316 17.8634 139.49 18.1333 139.552 18.24C139.58 18.2978 139.617 18.3509 139.661 18.3972H139.703C139.748 18.3506 139.785 18.2975 139.813 18.24C139.877 18.1333 140.049 17.8634 140.332 17.428C140.672 16.9096 141.019 16.3954 141.372 15.8856L145.051 10.581H149.469L149.455 28.0793Z" fill="black"/>
<path d="M10.6247 19.3416C10.6181 18.0945 10.8907 16.8618 11.4224 15.7339C11.9337 14.6298 12.6693 13.6442 13.5823 12.84C14.5305 12.017 15.6241 11.3785 16.8068 10.9575C18.0738 10.5001 19.4116 10.2699 20.7586 10.2776C22.5676 10.256 24.3535 10.6858 25.9548 11.528C27.458 12.303 28.7258 13.4673 29.6258 14.8995L24.8511 16.0234C24.353 15.4947 23.737 15.0914 23.0534 14.8462C22.3196 14.558 21.5385 14.4094 20.7502 14.4079C19.1511 14.4079 17.8777 14.8631 16.9304 15.7735C16.4548 16.2342 16.0819 16.7902 15.836 17.4051C15.5901 18.0199 15.4768 18.6798 15.5035 19.3416C15.5035 20.823 15.9914 22.008 16.9668 22.8955C17.9425 23.7836 19.2026 24.2263 20.7474 24.2245C21.6523 24.2315 22.5479 24.0397 23.3709 23.6626C24.1119 23.3524 24.754 22.8452 25.2273 22.1959L29.9685 23.2888C29.1316 24.8726 27.8444 26.1729 26.2694 27.0255C24.5866 27.9671 22.6866 28.4514 20.7586 28.4302C18.9903 28.4446 17.2437 28.0413 15.6607 27.253C14.1636 26.5208 12.893 25.3964 11.9839 23.9993C11.0791 22.6159 10.6059 20.9946 10.6247 19.3416ZM29.547 28.0512L37.3527 10.6316H41.7933L49.6128 28.0512H44.5571L43.4336 25.3314H35.7262L34.6027 28.0512H29.547ZM37.215 21.6624H41.9281L40.5491 18.2627C40.4028 17.907 40.2642 17.5482 40.1333 17.1865C40.0027 16.8319 39.8753 16.476 39.7514 16.1189C39.7095 15.9756 39.657 15.8357 39.5942 15.7004H39.5661C39.5032 15.8357 39.4506 15.9756 39.409 16.1189C39.2863 16.4754 39.1618 16.8313 39.0353 17.1865C38.9086 17.5486 38.7729 17.9075 38.6281 18.2627L37.215 21.6624ZM51.2278 28.0512V10.6316H58.5025C60.9366 10.6316 62.857 11.1766 64.2633 12.2669C64.9393 12.767 65.4844 13.4232 65.8522 14.1795C66.22 14.9358 66.3995 15.7698 66.3756 16.6105C66.4018 17.6851 66.085 18.7401 65.4711 19.6224C64.8066 20.518 63.9019 21.2068 62.862 21.609L67.1842 28.0512H61.9346L58.3115 22.3419H55.9157V28.0512H51.2278ZM55.9128 18.6727H59.1402C59.9117 18.6727 60.495 18.4639 60.89 18.0462C61.2696 17.6631 61.4826 17.1456 61.4826 16.6062C61.4826 16.0669 61.2696 15.5493 60.89 15.1663C60.4948 14.7488 59.9117 14.5398 59.1402 14.5398H55.9128V18.6727ZM70.1897 28.0512V10.6316H78.7169C80.4711 10.6101 82.2076 10.9836 83.7979 11.7245C85.276 12.4111 86.5385 13.4885 87.4491 14.8404C89.7924 18.3304 89.1032 23.0296 85.8568 25.6994C84.8997 26.4669 83.8108 27.0534 82.6434 27.4302C81.3749 27.8488 80.0469 28.0585 78.7112 28.0512H70.1897ZM74.8747 24.1404H78.7143C80.064 24.1795 81.3815 23.7238 82.4189 22.8591C82.9163 22.4379 83.311 21.9086 83.5729 21.3117C83.8348 20.7147 83.957 20.0658 83.9301 19.4144C83.9528 18.7508 83.8278 18.0904 83.5641 17.4811C83.3003 16.8717 82.9044 16.3286 82.4051 15.8911C81.3887 14.9924 80.0705 14.5107 78.7143 14.5424H74.8747V24.1404Z" fill="black"/>
</g>
<defs>
<clipPath id="clip0_99_300">
<rect width="159.347" height="38" fill="white"/>
</clipPath>
</defs>
</svg>
