<svg width="253" height="32" viewBox="0 0 253 32" fill="none" xmlns="http://www.w3.org/2000/svg">
<path fill-rule="evenodd" clip-rule="evenodd" d="M6.1703 20.0958H13.5609C25.9905 20.0958 26.0192 0.792466 13.1431 0.792466H0V30.7697H6.1703V20.0958ZM6.1703 14.6764V6.00377H12.3105C18.1735 6.00377 18.2065 14.6764 11.9774 14.6764H6.1703ZM25.6833 15.8019C25.6833 25.4737 31.354 31.6109 40.318 31.6109C49.282 31.6109 54.9943 25.4751 54.9943 15.8019C54.9943 6.12866 49.282 0 40.318 0C31.3525 0 25.6833 6.1301 25.6833 15.8019ZM31.9785 15.8019C31.9785 9.13198 35.1052 5.37783 40.318 5.37783C45.5709 5.37783 48.7393 9.13055 48.7393 15.8019C48.7393 22.4732 45.5709 26.2259 40.318 26.2259C35.1052 26.2259 31.9785 22.4732 31.9785 15.8019ZM61.7518 31.4186H64.2096V12.1669H68.0599V10.1599H64.2096V6.51485C64.2096 4.63132 64.824 3.85177 66.709 3.85177C67.078 3.85177 67.5273 3.97523 68.0599 4.01543V1.80457C67.6415 1.72488 67.2167 1.68355 66.7908 1.68111C63.3497 1.68111 61.7518 3.03346 61.7518 6.26935V10.1599H58.6394V12.1669H61.7518V31.4186ZM72.9339 19.2545C73.1794 14.5845 75.8826 11.7994 79.6928 11.7994C83.5015 11.7994 86.0411 14.5443 86.2464 19.2545H72.9339ZM72.9339 21.2615H88.786V20.4418C88.786 13.5192 85.3864 9.62871 79.733 9.62871C73.9575 9.62871 70.3942 13.726 70.3942 20.894C70.3942 27.9386 73.9173 32 79.6511 32C84.5265 32 87.9663 29.1675 88.4989 24.8664H86.0411C85.5501 27.9788 83.1325 29.8222 79.8148 29.8222C75.719 29.8222 72.9339 26.7097 72.9339 21.3836V21.2615ZM93.1689 31.4186H95.6267V19.6221C95.6267 14.7065 97.839 12.1669 102.057 12.1669H102.384V9.62728H102.099C99.0263 9.62728 96.814 10.938 95.5449 13.8882V10.1599H93.1689V31.4186ZM105.745 31.4186H108.203V19.6221C108.203 14.7065 110.415 12.1669 114.633 12.1669H114.962V9.62728H114.675C111.602 9.62728 109.391 10.938 108.121 13.8882V10.1599H105.745V31.4186ZM118.567 31.4186H121.024V10.1599H118.567V31.4186ZM118.567 5.65491H121.024V1.96823H118.567V5.65491ZM128.233 19.2545C128.479 14.5845 131.183 11.7994 134.993 11.7994C138.8 11.7994 141.341 14.5443 141.545 19.2545H128.233ZM128.233 21.2615H144.086V20.4418C144.086 13.5192 140.685 9.62871 135.032 9.62871C129.256 9.62871 125.693 13.726 125.693 20.894C125.693 27.9386 129.217 32 134.951 32C139.825 32 143.268 29.1675 143.8 24.8664H141.341C140.85 27.9788 138.434 29.8222 135.113 29.8222C131.019 29.8222 128.233 26.7097 128.233 21.3836V21.2615ZM147.569 24.7831C147.69 29.1675 150.887 31.9986 155.841 31.9986C160.84 31.9986 163.952 29.4116 163.952 25.8886C163.952 22.4488 161.987 21.0146 157.48 19.9078C153.056 18.844 150.558 18.5568 150.558 15.4444C150.558 13.3139 152.319 11.7979 155.311 11.7979C158.668 11.7979 160.675 13.5178 160.841 16.3862H163.379C163.094 12.1669 160.144 9.62728 155.351 9.62728C150.968 9.62728 148.02 12.1669 148.02 15.7703C148.02 19.457 150.602 20.6457 155.68 21.8746C159.449 22.7761 161.414 23.2255 161.414 25.8484C161.414 28.1827 159.367 29.8222 155.722 29.8222C152.444 29.8222 150.15 27.7333 150.109 24.7831H147.569ZM169.933 31.4186H172.636V27.7735H169.933V31.4186ZM194.1 24.0883C193.568 27.6931 191.193 29.782 187.914 29.782C183.778 29.782 180.951 26.5044 180.951 20.7289C180.951 15.0353 183.778 11.7994 187.871 11.7994C191.068 11.7994 193.484 13.8064 193.894 16.9202H196.268C196.024 12.5775 192.665 9.62871 187.87 9.62871C182.097 9.62871 178.409 13.8064 178.409 20.9342C178.409 27.8554 182.054 31.9598 187.707 31.9598C192.747 31.9598 196.106 28.9637 196.557 24.0897L194.1 24.0883ZM199.548 20.8108C199.548 27.9386 203.112 31.9598 209.298 31.9598C215.484 31.9598 219.086 27.9386 219.086 20.8108C219.086 13.6843 215.482 9.62871 209.298 9.62871C203.113 9.62871 199.548 13.6829 199.548 20.8108ZM202.088 20.8108C202.088 14.9951 204.791 11.7994 209.296 11.7994C213.842 11.7994 216.548 14.9951 216.548 20.8108C216.548 26.6279 213.842 29.782 209.296 29.782C204.791 29.782 202.088 26.6265 202.088 20.8108ZM223.472 31.4186H225.928V18.2711C225.928 14.4194 228.469 11.7994 232.195 11.7994C235.225 11.7994 236.658 13.5192 236.658 17.0423V31.42H239.117V18.1089C239.117 14.3806 241.535 11.8008 245.345 11.8008C248.619 11.8008 249.848 13.357 249.848 16.7982V31.4214H252.308V16.5915C252.308 11.9214 250.056 9.62728 245.427 9.62728C242.396 9.62728 240.017 11.0615 238.584 13.8049C237.89 11.1433 235.719 9.62728 232.522 9.62728C229.572 9.62728 227.197 11.0615 225.764 13.6829V10.1599H223.47V31.4186H223.472Z" fill="#002552"/>
</svg>
