<svg width="44" height="63" viewBox="0 0 44 63" fill="none" xmlns="http://www.w3.org/2000/svg">
<path d="M21.5281 0V18.2951" stroke="white" stroke-width="2"/>
<path d="M21.7207 17.6738C12.1162 17.6738 3.97562 23.8842 1.26227 32.4589C0.639992 34.4254 1.20567 36.2788 2.41121 37.605C3.60047 38.9133 5.40795 39.7151 7.3462 39.7151H36.0952C38.0335 39.7151 39.841 38.9133 41.0302 37.605C42.2358 36.2788 42.8014 34.4254 42.1792 32.4589C39.4658 23.8842 31.3253 17.6738 21.7207 17.6738Z" stroke="white" stroke-width="2"/>
<path d="M30.1944 39.0938C30.1944 43.7736 26.3145 47.5674 21.5283 47.5674C16.7422 47.5674 12.8622 43.7736 12.8622 39.0938" stroke="white" stroke-width="2"/>
<path d="M4.77442 53.3445L11.7073 46.4116" stroke="white" stroke-width="2" stroke-linecap="round"/>
<path d="M21.6649 61.9935L21.568 52.1894" stroke="white" stroke-width="2" stroke-linecap="round"/>
<path d="M38.7807 53.3649L31.7556 46.5255" stroke="white" stroke-width="2" stroke-linecap="round"/>
</svg>
