<svg width="1440" height="132" viewBox="0 0 1440 132" fill="none" xmlns="http://www.w3.org/2000/svg">
<path d="M410.487 105.688C397.041 103.148 389.292 95.1665 387.13 81.5369C387.02 80.8502 386.064 80.8133 385.888 81.4778C381.477 98.5185 377.485 101.428 361.472 105.703C360.811 105.88 360.855 106.84 361.539 106.95C375.242 109.077 383.249 116.866 385.807 130.488C385.939 131.175 386.924 131.175 387.049 130.488C389.542 117.213 397.21 109.416 410.487 106.943C411.171 106.817 411.171 105.828 410.487 105.695V105.688Z" fill="white"/>
<line x1="1440" y1="106.5" y2="106.5" stroke="white"/>
<line x1="386.5" y1="2.18555e-08" x2="386.5" y2="90" stroke="white"/>
</svg>
