<svg width="1440" height="529" viewBox="0 0 1440 529" fill="none" xmlns="http://www.w3.org/2000/svg">
<path d="M566.558 528.394L566.558 528.397C566.549 528.447 566.53 528.465 566.518 528.474C566.5 528.488 566.47 528.5 566.431 528.5C566.392 528.5 566.36 528.488 566.341 528.473C566.327 528.463 566.308 528.443 566.298 528.393C566.298 528.392 566.298 528.392 566.298 528.392L565.807 528.487C563.249 514.909 555.242 507.145 541.539 505.026L566.558 528.394ZM566.558 528.394C567.818 521.703 570.396 516.353 574.37 512.362C578.344 508.371 583.68 505.774 590.396 504.527L590.397 504.526C590.447 504.517 590.465 504.499 590.474 504.487C590.488 504.469 590.5 504.439 590.5 504.399C590.5 504.36 590.488 504.328 590.473 504.309C590.462 504.295 590.442 504.275 590.392 504.265L589.987 504.187V504.18C583.378 502.871 578.114 500.236 574.218 496.225C570.243 492.132 567.73 486.644 566.637 479.774C566.628 479.721 566.608 479.7 566.596 479.689C566.578 479.675 566.549 479.662 566.512 479.66C566.475 479.659 566.443 479.669 566.422 479.683C566.406 479.694 566.385 479.715 566.371 479.764C564.164 488.263 562.036 493.358 558.375 496.843C554.72 500.322 549.598 502.137 541.601 504.265C541.552 504.278 541.533 504.299 541.522 504.314C541.509 504.335 541.498 504.366 541.5 504.404C541.502 504.441 541.515 504.471 541.531 504.49C541.543 504.504 541.565 504.523 541.617 504.532L566.558 528.394Z" fill="#060606" stroke="#060606"/>
<line x1="1440" y1="504.578" y2="504.578" stroke="#060606"/>
<line x1="566.5" x2="566.5" y2="504" stroke="#060606"/>
</svg>
