<svg width="57" height="60" viewBox="0 0 57 60" fill="none" xmlns="http://www.w3.org/2000/svg">
<path d="M44.9323 27.5001H11.8243C9.21215 27.5001 7.09458 29.7387 7.09458 32.5001V50.0001C7.09458 52.7615 9.21215 55.0001 11.8243 55.0001H44.9323C47.5445 55.0001 49.6621 52.7615 49.6621 50.0001V32.5001C49.6621 29.7387 47.5445 27.5001 44.9323 27.5001Z" stroke="white" stroke-width="1.5" stroke-linecap="round" stroke-linejoin="round"/>
<path d="M16.554 27.4997V17.4997C16.554 14.1845 17.7998 11.0051 20.0173 8.66091C22.2348 6.31671 25.2423 4.99975 28.3783 4.99975C31.5143 4.99975 34.5219 6.31671 36.7394 8.66091C38.9568 11.0051 40.2026 14.1845 40.2026 17.4997V27.4997" stroke="white" stroke-width="1.5" stroke-linecap="round" stroke-linejoin="round"/>
</svg>
