<svg width="44" height="44" viewBox="0 0 44 44" fill="none" xmlns="http://www.w3.org/2000/svg">
<path d="M25.6666 27.06V6.41667C25.6666 5.20109 25.1837 4.0353 24.3242 3.17576C23.4646 2.31622 22.2988 1.83333 21.0833 1.83333C19.8677 1.83333 18.7019 2.31622 17.8423 3.17576C16.9828 4.0353 16.4999 5.20109 16.4999 6.41667V27.06C15.0283 28.0433 13.9118 29.4738 13.3156 31.1403C12.7193 32.8067 12.6747 34.6208 13.1885 36.3145C13.7022 38.0082 14.7471 39.4918 16.1687 40.5461C17.5903 41.6005 19.3133 42.1697 21.0833 42.1697C22.8532 42.1697 24.5762 41.6005 25.9978 40.5461C27.4194 39.4918 28.4643 38.0082 28.978 36.3145C29.4918 34.6208 29.4472 32.8067 28.851 31.1403C28.2547 29.4738 27.1382 28.0433 25.6666 27.06Z" stroke="white" stroke-linecap="round" stroke-linejoin="round"/>
</svg>
