<svg width="23" height="23" viewBox="0 0 23 23" fill="none" xmlns="http://www.w3.org/2000/svg">
<path d="M16.2917 1.91657H6.70835C4.06199 1.91657 1.9167 4.06187 1.9167 6.70822V16.2915C1.9167 18.9379 4.06199 21.0832 6.70835 21.0832H16.2917C18.938 21.0832 21.0833 18.9379 21.0833 16.2915V6.70822C21.0833 4.06187 18.938 1.91657 16.2917 1.91657Z" stroke="white" stroke-width="1.5" stroke-linecap="round" stroke-linejoin="round"/>
<path d="M15.3333 10.8961C15.4516 11.6937 15.3154 12.5082 14.944 13.2239C14.5727 13.9396 13.9851 14.5199 13.2649 14.8824C12.5447 15.2449 11.7285 15.3711 10.9325 15.243C10.1364 15.1149 9.40104 14.7391 8.83091 14.169C8.26078 13.5988 7.88493 12.8634 7.75684 12.0674C7.62874 11.2713 7.75492 10.4552 8.11742 9.73496C8.47992 9.01476 9.06028 8.42719 9.77596 8.05584C10.4916 7.68449 11.3062 7.54826 12.1038 7.66652C12.9173 7.78716 13.6705 8.16626 14.252 8.74782C14.8336 9.32937 15.2127 10.0826 15.3333 10.8961Z" stroke="white" stroke-width="1.5" stroke-linecap="round" stroke-linejoin="round"/>
<path d="M16.7708 6.22917H16.7812" stroke="white" stroke-width="1.5" stroke-linecap="round" stroke-linejoin="round"/>
</svg>
