<svg width="40" height="40" viewBox="0 0 40 40" fill="none" xmlns="http://www.w3.org/2000/svg">
<path d="M20.3482 39.3687L20.3477 39.3714C20.3477 39.3715 20.3476 39.3717 20.3476 39.3718C20.3467 39.3718 20.3458 39.3719 20.3448 39.3719C20.3421 39.3719 20.3396 39.3716 20.3376 39.3713L20.3482 39.3687ZM20.3482 39.3687C21.3593 34.0008 23.4284 29.7013 26.6248 26.4911C29.8216 23.2806 34.1103 21.1953 39.4985 20.1949L39.4998 20.1946M20.3482 39.3687L39.4998 20.1946M39.4998 20.1946C39.4998 20.1946 39.4998 20.1946 39.4999 20.1946C39.5 20.1935 39.5 20.1924 39.5 20.1912C39.5 20.1882 39.4997 20.1856 39.4993 20.1834C39.498 20.1831 39.4965 20.1827 39.4947 20.1824L39.0898 20.1039M39.4998 20.1946L39.0898 20.1039M39.0898 20.1039V20.0978M39.0898 20.1039V20.0978M39.0898 20.0978C33.8245 19.0421 29.6204 16.9312 26.5028 13.7213C23.3052 10.429 21.2874 6.01838 20.4105 0.506643L20.9042 0.428078L20.4106 0.507618L39.0898 20.0978ZM13.8295 26.28C17.147 29.4896 19.2986 33.8594 20.3366 39.367L0.500385 20.1824C0.500095 20.1844 0.499908 20.1869 0.50005 20.1897C0.500187 20.1925 0.500584 20.1948 0.501049 20.1967C0.503223 20.1973 0.506313 20.1981 0.510456 20.1987L0.430763 20.6923L0.507183 20.1982C6.06639 21.058 10.5117 23.0701 13.8295 26.28Z" fill="white" stroke="white"/>
</svg>
