<svg width="120" height="120" viewBox="0 0 120 120" fill="none" xmlns="http://www.w3.org/2000/svg">
<g clip-path="url(#clip0_220_56)">
<path d="M71.25 117.6H48.75V114.9H71.25V117.6ZM75 110.1H45V107.4H75V110.1ZM75 102.6H45V99.8996H75V102.6ZM75 95.0996H45C44.2538 95.0996 43.65 94.4958 43.65 93.7496V88.3008C43.65 82.2183 43.65 73.0271 35.9963 65.0696C28.8413 57.6221 24.9 48.1833 24.9 38.4933C24.9 18.2546 40.3163 2.40332 60 2.40332C79.6838 2.40332 95.1 18.2546 95.1 38.4933C95.1 48.1833 91.1588 57.6258 84.0038 65.0658C76.35 73.0271 76.35 82.2183 76.35 88.3008V93.7496C76.35 94.4958 75.7463 95.0996 75 95.0996ZM46.35 92.3996H73.65V88.3008C73.65 82.1808 73.65 71.9396 82.0575 63.1946C88.725 56.2533 92.4 47.4821 92.4 38.4896C92.4 19.7658 78.1688 5.09957 60 5.09957C41.8313 5.09957 27.6 19.7658 27.6 38.4896C27.6 47.4821 31.2713 56.2533 37.9425 63.1946C46.35 71.9396 46.35 82.1808 46.35 88.3008V92.3996Z" fill="white"/>
</g>
<defs>
<clipPath id="clip0_220_56">
<rect width="120" height="120" fill="white"/>
</clipPath>
</defs>
</svg>
