<svg width="157" height="36" viewBox="0 0 157 36" fill="none" xmlns="http://www.w3.org/2000/svg">
<path fill-rule="evenodd" clip-rule="evenodd" d="M74.0908 0.103357V28.7514C74.0908 36.1453 65.4259 37.3004 61.8452 31.4087L54.3371 19.0496V28.7522C54.4522 36.1461 45.7888 37.3012 42.2074 31.4095L34.6993 19.0504V27.8289C34.6993 32.3336 32.042 34.7599 27.9993 34.7599H18.411C-5.96334 34.7599 -6.19359 0.104923 18.0649 0.104923H22.2235V9.92422H17.6028C7.55248 9.92422 6.51322 24.9414 18.2959 24.9414H23.7256C24.3028 24.9414 24.7656 24.3634 24.7656 23.7862V6.45715C24.7656 -0.0117686 33.0828 -3.1311 37.4724 4.37786C41.978 12.0019 44.5193 16.5075 44.5193 16.5075V6.45715C44.5193 -0.0117686 52.7214 -3.1311 57.1102 4.37786C61.6158 12.0019 64.1571 16.5075 64.1571 16.5075V0.103357H74.0908Z" fill="#C82636"/>
<path fill-rule="evenodd" clip-rule="evenodd" d="M68.5451 0.102987V28.1747C68.5451 28.7511 68.314 29.2131 67.9671 29.3298C67.6209 29.3298 67.274 29.2139 67.0429 28.8678C66.9278 28.6367 55.4913 10.2684 52.603 5.64856C52.0258 4.83955 51.1017 4.4934 50.2927 4.72443C49.3685 4.95546 48.9065 5.88037 48.9065 6.91963V28.1754C48.9065 28.7518 48.6754 29.2139 48.3285 29.3306C47.9823 29.3306 47.6354 29.2147 47.4044 28.8685C47.2892 28.6375 35.7376 10.2692 32.9644 5.64934C32.3864 4.84034 31.4623 4.49418 30.6541 4.72521C29.7299 4.95624 29.1528 5.88115 29.1528 6.92041V28.0603C29.1528 28.6383 28.6907 29.2155 27.9976 29.2155H17.7178C9.28549 29.2155 5.47305 23.0943 5.47305 17.4328C5.47305 11.5419 9.51574 5.65013 17.3709 5.65013H22.2225V4.49496H17.3709C8.82264 4.49496 4.31789 11.0798 4.31789 17.4328C4.31789 23.6707 8.59239 30.3706 17.7178 30.3706H27.9992C28.5763 30.3706 29.1543 30.1412 29.6164 29.6775C30.0785 29.2155 30.3095 28.6391 30.3095 28.0611V6.91885C30.3095 6.34165 30.5405 5.87959 30.8867 5.76368C31.3487 5.64856 31.6957 5.87959 32.0418 6.22575C34.8142 10.8464 46.3659 29.2131 46.4818 29.4442C46.9439 30.2532 47.868 30.6009 48.6762 30.3683C49.2542 30.1388 49.9473 29.4442 49.9473 28.1747V6.91885C49.9473 6.34165 50.1783 5.87959 50.6404 5.76368C50.9873 5.64856 51.3335 5.87959 51.6804 6.22575C54.4528 10.8464 66.0045 29.2131 66.1204 29.4442C66.6976 30.2532 67.5066 30.6009 68.3148 30.3683C69.0079 30.1388 69.7018 29.4442 69.7018 28.1747V0.102987H68.5451Z" fill="white"/>
<path fill-rule="evenodd" clip-rule="evenodd" d="M105.311 21.4549C104.936 16.6877 100.921 14.4295 96.5302 14.4295C90.5084 14.4295 87.1215 18.6958 87.1215 24.4667C87.1215 29.9867 90.886 34.0003 96.5302 34.0003C101.297 34.0003 104.809 31.2412 105.438 26.3489H100.546C100.169 28.6062 98.7883 30.1117 96.4043 30.1117C93.2692 30.1117 92.2647 26.9749 92.2647 24.3408C92.2647 21.5817 93.2701 18.319 96.531 18.319C98.6642 18.319 100.045 19.4485 100.295 21.4558L105.311 21.4549ZM107.32 24.2158C107.32 30.1117 111.083 34.0003 116.98 34.0003C122.751 34.0003 126.513 30.1117 126.513 24.2158C126.513 18.3181 122.751 14.4295 116.98 14.4295C111.083 14.4303 107.32 18.319 107.32 24.2158ZM112.463 24.2158C112.463 21.204 113.467 18.3181 116.98 18.3181C120.367 18.3181 121.498 21.204 121.498 24.2158C121.498 27.2258 120.368 30.1117 116.98 30.1117C113.466 30.1117 112.463 27.2258 112.463 24.2158ZM128.897 33.4985H133.791V22.7086C133.791 19.0709 136.3 18.444 137.303 18.444C140.44 18.444 140.315 20.9523 140.315 23.0854V33.4977H145.458V23.213C145.458 20.8289 145.96 18.4457 148.845 18.4457C151.73 18.4457 151.982 20.4521 151.982 22.9629V33.5002H157V21.0807C157 16.3134 154.239 14.4312 150.225 14.4312C147.715 14.4312 145.708 15.9366 144.705 17.568C143.702 15.3106 141.569 14.4312 139.31 14.4312C136.927 14.4312 134.919 15.5607 133.665 17.4429H133.54V14.933H128.897V33.4985ZM79.9694 30.8644C79.9694 29.2348 81.3498 27.8544 83.1061 27.8544C84.8634 27.8544 86.2429 29.2348 86.2429 30.8644C86.2473 31.2776 86.1691 31.6874 86.013 32.0699C85.8569 32.4524 85.626 32.8 85.3338 33.0921C85.0417 33.3842 84.6942 33.6151 84.3116 33.7712C83.9291 33.9273 83.5193 34.0055 83.1061 34.0012C82.6931 34.0052 82.2834 33.9268 81.9011 33.7705C81.5187 33.6143 81.1713 33.3834 80.8792 33.0913C80.5872 32.7992 80.3563 32.4519 80.2 32.0695C80.0438 31.6871 79.9654 31.2775 79.9694 30.8644Z" fill="black"/>
</svg>
