<svg width="47" height="47" viewBox="0 0 47 47" fill="none" xmlns="http://www.w3.org/2000/svg">
<path d="M37.2083 21.5417H9.79167C7.62855 21.5417 5.875 23.2952 5.875 25.4583V39.1667C5.875 41.3298 7.62855 43.0833 9.79167 43.0833H37.2083C39.3714 43.0833 41.125 41.3298 41.125 39.1667V25.4583C41.125 23.2952 39.3714 21.5417 37.2083 21.5417Z" stroke="white" stroke-linecap="round" stroke-linejoin="round"/>
<path d="M13.7083 21.5417V13.7083C13.7083 11.1114 14.7399 8.62087 16.5762 6.78458C18.4125 4.94829 20.903 3.91667 23.4999 3.91667C26.0968 3.91667 28.5874 4.94829 30.4237 6.78458C32.26 8.62087 33.2916 11.1114 33.2916 13.7083V21.5417" stroke="white" stroke-linecap="round" stroke-linejoin="round"/>
</svg>
